<?xml version="1.0" encoding="utf-8"?>
<!-- Generator: Adobe Illustrator 27.5.0, SVG Export Plug-In . SVG Version: 6.00 Build 0)  -->
<svg version="1.1" id="Layer_1" xmlns="http://www.w3.org/2000/svg" xmlns:xlink="http://www.w3.org/1999/xlink" x="0px" y="0px"
	 viewBox="0 0 637.74 637.819" style="enable-background:new 0 0 637.74 637.819;" xml:space="preserve">
<rect x="0.568" y="-1.708" style="opacity:0.9;fill:#E96B6B;" width="636.604" height="636.606"/>
<g>
	<path style="fill:#FFEC7F;" d="M350.869,119.134c0.01,0.006,0.025,0.006,0.039,0.006c1.121,0.19,2.199-0.531,2.418-1.629
		l0.844-4.327l0.643-4.174l0.91-4.346l0.625-4.143l0.949-4.303l0.764-4.313l0.609-4.179l0.85-4.288l0.736-4.231l0.793-4.303
		l0.656-4.179l1.693-8.586l0.59-4.175l0.838-4.351l0.576-4.197l0.928-4.211l0.768-4.316l0.582-4.159l0.889-4.341l0.615-4.164
		l0.863-4.229c0.223-1.107-0.514-2.184-1.652-2.4c-0.018-0.005-0.033-0.005-0.049-0.011c-1.117-0.187-2.191,0.522-2.414,1.618
		l-0.883,4.332l-0.615,4.165l-0.887,4.351l-0.594,4.205l-0.742,4.174l-0.941,4.292l-0.584,4.243l-0.834,4.34l-0.594,4.174
		l-1.684,8.541l-0.664,4.215l-0.789,4.268l-0.732,4.212l-0.854,4.337l-0.615,4.219l-0.748,4.17l-0.951,4.355l-0.629,4.156
		l-0.908,4.346l-0.648,4.195l-0.834,4.256C348.984,117.856,349.728,118.923,350.869,119.134z"/>
	<path style="fill:#FFEC7F;" d="M161.843,63.56l2.262,3.596l2.195,3.845l2.299,3.624l2.195,3.682l2.168,3.894l2.301,3.591
		l2.223,3.819l2.287,3.608l4.374,7.568l6.7,11.113l2.213,3.828l2.293,3.642l0.869,1.458c0.027-0.06,0.051-0.12,0.078-0.182
		c0.615-1.39,1.475-2.59,2.483-3.647l-2.101-3.333l-6.658-11.288l-2.248-3.639l-4.393-7.602l-2.287-3.607l-2.229-3.824l-2.277-3.561
		l-2.135-3.841L172.2,72.53l-2.277-3.591l-2.196-3.84l-2.259-3.598l-2.151-3.766c-0.564-0.988-1.837-1.342-2.852-0.791
		c-1.012,0.545-1.379,1.793-0.814,2.775L161.843,63.56z"/>
	<path style="fill:#FFEC7F;" d="M92.981,235.973l-3.241-1.035l-12.555-4.506l-4.114-1.352l-8.394-3.117l-4.119-1.297l-4.252-1.554
		l-4.145-1.282l-4.102-1.619l-4.232-1.484l-4.104-1.289l-4.232-1.597l-4.107-1.317l-4.13-1.559c-1.09-0.403-2.293,0.111-2.715,1.164
		c-0.425,1.053,0.115,2.236,1.194,2.645l4.232,1.598l4.107,1.313l4.245,1.604l4.151,1.303l4.091,1.439l4.103,1.618l4.264,1.322
		l4.245,1.559l4.117,1.289l8.347,3.102l12.461,4.293l4.237,1.574l3.271,1.043C92.001,238.492,92.466,237.213,92.981,235.973z"/>
	<path style="fill:#FFEC7F;" d="M85.044,400.047l4.271-1.453l4.074-1.574l4.092-1.465l4.32-1.389l4.036-1.539l4.3-1.41l4.076-1.549
		l4.192-1.436c1.096-0.373,1.669-1.543,1.286-2.605c-0.387-1.063-1.58-1.625-2.675-1.248l-4.259,1.453l-4.054,1.545l-4.298,1.41
		l-4.02,1.537l-4.283,1.375l-4.211,1.5l-4.043,1.572l-12.579,4.41l-4.064,1.535l-8.464,2.881l-4.023,1.568l-4.271,1.475
		l-4.041,1.598l-4.201,1.348l-4.216,1.506l-4.01,1.57l-4.276,1.428l-4.031,1.559l-4.19,1.4c-1.096,0.359-1.678,1.527-1.303,2.588
		c0.257,0.732,0.898,1.232,1.63,1.352c0.338,0.059,0.692,0.039,1.035-0.078l4.282-1.432l4.025-1.555l4.287-1.432l4.054-1.586
		l4.091-1.465l4.206-1.348l4.141-1.633l4.267-1.469l4.025-1.576l8.428-2.865L85.044,400.047z"/>
	<path style="fill:#FFEC7F;" d="M247.331,428.767c-0.064-0.049-0.106-0.082-0.164-0.127c-0.455-0.322-0.907-0.646-1.37-0.957
		c-0.117-0.076-0.234-0.152-0.351-0.227l-4.199,6.783l-1.929,3.621l-2.267,3.717l-1.929,3.648l-2.309,3.543l-2.186,3.715
		l-1.955,3.658l-2.283,3.629l-1.943,3.596l-2.252,3.576c-0.605,0.959-0.293,2.217,0.691,2.805c0.234,0.145,0.485,0.229,0.742,0.27
		c0.818,0.141,1.683-0.211,2.146-0.943l2.314-3.686l1.947-3.598l2.253-3.574l2.015-3.777l2.1-3.553l2.314-3.545l1.999-3.787
		l2.267-3.707l1.93-3.617l3.881-6.275C248.31,429.557,247.824,429.158,247.331,428.767z"/>
	<path style="fill:#FFEC7F;" d="M210.292,491.453c-0.998-0.57-2.283-0.254-2.877,0.717l-2.309,3.781l-2.076,3.713l-2.377,3.777
		l-2.047,3.688l-2.393,3.734l-2.232,3.787l-2.049,3.725l-6.735,11.256l-2.086,3.713l-4.603,7.506l-2.027,3.729l-2.309,3.799
		l-2.029,3.748l-2.334,3.662l-2.241,3.793l-2.025,3.717l-2.343,3.779l-2.049,3.711l-2.293,3.688
		c-0.601,0.969-0.278,2.229,0.712,2.809c0.231,0.135,0.475,0.225,0.726,0.266c0.828,0.139,1.693-0.217,2.152-0.953l2.342-3.781
		l2.055-3.713l2.349-3.789l2.046-3.754l2.166-3.676l2.342-3.66l2.086-3.852l2.304-3.797l2.034-3.727l4.575-7.469l6.515-11.201
		l2.322-3.789l2.07-3.752l2.162-3.678l2.413-3.771l2.06-3.703l2.375-3.775l2.086-3.736l2.271-3.717
		C211.616,493.283,211.289,492.033,210.292,491.453z"/>
	<path style="fill:#FFEC7F;" d="M368.41,606.619l-0.883-4.127l-0.697-4.377l-0.908-4.154l-0.768-4.168l-0.621-4.27l-0.949-4.26
		l-0.742-4.35l-0.904-4.125l-1.426-8.584l-2.402-12.656l-0.727-4.359l-0.893-4.17l-0.768-4.17l-0.643-4.404l-0.867-4.125
		l-0.668-4.371l-0.867-4.17l-0.713-4.273c-0.191-1.115-1.264-1.869-2.414-1.689c-1.141,0.182-1.918,1.232-1.727,2.344l0.723,4.352
		l0.861,4.139l0.678,4.381l0.863,4.111l0.633,4.355l0.791,4.301l0.889,4.131l2.277,12.838l0.85,4.148l1.428,8.631l0.904,4.125
		l0.744,4.355l0.922,4.145l0.621,4.268l0.795,4.309l0.898,4.106l0.697,4.365l0.883,4.125l0.682,4.262
		c0.141,0.891,0.854,1.559,1.717,1.703c0.217,0.037,0.445,0.037,0.68,0.004c1.143-0.174,1.93-1.219,1.748-2.334L368.41,606.619z"/>
	<path style="fill:#FFEC7F;" d="M546.703,505.082l-3.4-2.615l-3.414-2.896l-3.434-2.625l-3.352-2.723l-3.293-2.869l-3.529-2.678
		l-3.439-2.861l-3.416-2.607l-6.762-5.672l-10.203-8.207l-3.428-2.875l-3.438-2.641l-3.344-2.715l-3.398-2.961l-3.389-2.625
		l-3.406-2.924l-3.416-2.656l-3.367-2.822c-0.883-0.732-2.207-0.639-2.963,0.217c-0.752,0.861-0.652,2.148,0.23,2.881l3.42,2.871
		l3.398,2.641l3.406,2.916l3.375,2.621l3.363,2.93l3.449,2.799l3.408,2.621l10.215,8.4l3.395,2.664l6.795,5.699l3.414,2.602
		l3.443,2.865l3.439,2.611l3.301,2.867l3.449,2.803l3.404,2.6l3.404,2.891l3.398,2.615l3.342,2.832
		c0.299,0.252,0.652,0.414,1.02,0.479c0.697,0.113,1.441-0.113,1.939-0.676c0.762-0.848,0.668-2.137-0.203-2.879L546.703,505.082z"
		/>
	<path style="fill:#FFEC7F;" d="M620.789,315.791l-4.539-0.088l-4.318,0.131l-4.555-0.088l-4.357,0.152l-4.348,0.016l-4.424-0.152
		l-4.479,0.172l-4.529-0.045l-4.324,0.152l-8.936-0.127l-13.215,0.107l-4.533-0.064l-4.375,0.139l-4.348,0.01l-4.57-0.152
		l-4.32,0.119l-4.545-0.119l-4.357,0.104l-4.445-0.059c-1.16-0.016-2.115,0.885-2.131,2.016c-0.016,1.018,0.742,1.873,1.738,2.045
		c0.109,0.016,0.217,0.023,0.332,0.023l4.529,0.064l4.328-0.111l4.551,0.121l4.305-0.121l4.516,0.154l4.494-0.012l4.332-0.139
		l13.379,0.055l4.342-0.1l8.979,0.133l4.326-0.156l4.543,0.049l4.348-0.174l4.424,0.148l4.494-0.01l4.309-0.156l4.539,0.092
		l4.318-0.133l4.438,0.09c1.152,0.025,2.111-0.871,2.141-2.002C622.865,316.752,621.945,315.83,620.789,315.791z"/>
	<path style="fill:#FFEC7F;" d="M490.563,171.669l-3.557,2.753l-3.268,2.796l-3.525,2.765l-3.303,2.812l-3.432,2.748
		c-0.895,0.714-1.025,2.002-0.289,2.873c0.334,0.393,0.783,0.637,1.258,0.717c0.584,0.1,1.205-0.043,1.695-0.436l3.48-2.789
		l3.287-2.797l3.529-2.764l3.252-2.783l3.529-2.729l3.428-2.816l3.254-2.805l10.262-8.338l3.291-2.797l6.924-5.531l3.246-2.818
		l3.488-2.801l3.203-2.799l3.514-2.719l3.426-2.816l3.236-2.805l3.504-2.775l3.246-2.789l3.434-2.715
		c0.904-0.712,1.035-2,0.309-2.876c-0.734-0.874-2.051-1.008-2.953-0.298l-3.502,2.771l-3.246,2.793l-3.51,2.773l-3.268,2.835
		l-3.336,2.74l-3.561,2.759l-3.232,2.822l-3.479,2.802l-3.248,2.816l-6.896,5.507l-10.08,8.359l-3.492,2.791l-3.279,2.819
		L490.563,171.669z"/>
	<path style="fill:#FFEC7F;" d="M310.896,111.007c0.029,0.993,0.773,1.799,1.738,1.962c0.131,0.024,0.273,0.033,0.414,0.028
		c1.156-0.028,2.07-0.967,2.044-2.09l-0.103-4.11l0.026-12.589l-0.075-4.111l0.092-8.428l-0.121-4.105l0.033-4.249l-0.131-4.06
		l0.11-4.225l-0.019-4.219l-0.112-4.084l0.065-4.244l-0.104-4.096l0.065-4.164c0.016-1.131-0.92-2.061-2.07-2.074
		c-1.156-0.02-2.108,0.881-2.131,2.011l-0.06,4.243l0.105,4.09l-0.065,4.262l0.115,4.115l0.016,4.111l-0.11,4.292l0.131,4.087
		l-0.031,4.246l0.118,4.105l-0.092,8.39l0.076,4.14l-0.026,12.582L310.896,111.007z"/>
	<path style="fill:#FFEC7F;" d="M133.03,113.412l2.772,3.097l2.762,3.274l2.802,3.102l2.733,3.157l2.752,3.315l2.791,3.081
		l2.777,3.251l2.788,3.098l5.482,6.455l2.783,3.137l8.292,9.643l2.827,3.15c0.327,0.373,0.763,0.595,1.222,0.669
		c0.602,0.107,1.246-0.048,1.736-0.472c0.876-0.738,0.965-2.031,0.202-2.881l-2.79-3.108l-2.752-3.245l-8.313-9.527l-5.504-6.471
		l-2.788-3.098l-2.778-3.26l-2.771-3.059l-2.727-3.279l-2.782-3.219l-2.778-3.084l-2.756-3.266l-2.778-3.097l-2.716-3.221
		c-0.732-0.874-2.059-0.997-2.953-0.286c-0.898,0.715-1.021,2.004-0.293,2.873L133.03,113.412z"/>
	<path style="fill:#FFEC7F;" d="M98.791,280.057l-3.264-0.596l-4.211-0.699l-4.26-0.736l-4.174-0.645l-8.504-1.547l-4.172-0.6
		l-4.295-0.77l-4.128-0.578l-4.256-0.838l-4.271-0.723l-4.151-0.594l-4.281-0.801l-4.156-0.615l-4.207-0.785
		c-1.121-0.211-2.232,0.52-2.449,1.625c-0.221,1.107,0.526,2.18,1.661,2.391l4.287,0.797l4.151,0.615l4.293,0.801l4.189,0.6
		l4.156,0.703l4.318,0.852l4.164,0.584l4.288,0.762l4.167,0.605l8.477,1.543l4.193,0.642l4.24,0.736l4.188,0.697l4.301,0.781
		l1.783,0.266C100.161,283.047,99.467,281.555,98.791,280.057z"/>
	<path style="fill:#FFEC7F;" d="M130.404,424.307c0.99-0.586,1.308-1.844,0.707-2.809c-0.592-0.963-1.889-1.271-2.874-0.693
		l-3.63,2.137l-3.764,2.074l-11.076,6.322l-7.506,4.148l-3.613,2.133l-3.773,2.102l-3.58,2.127l-3.792,2.043l-3.737,2.113
		l-3.601,2.129l-3.786,2.08l-3.611,2.123l-3.732,2.041c-1.009,0.557-1.367,1.799-0.802,2.783c0.327,0.555,0.878,0.908,1.476,1.008
		c0.459,0.08,0.949,0.01,1.384-0.232l3.781-2.074l3.619-2.123l3.784-2.078l3.629-2.143l3.666-2.074l3.83-2.064l3.603-2.143
		l3.774-2.096l3.613-2.137l7.479-4.133l3.662-2.127l11.194-6.275L130.404,424.307z"/>
	<path style="fill:#FFEC7F;" d="M264.458,444.732l-2.619,6.826l-1.34,3.895l-1.509,3.979l-1.313,3.859l-1.569,3.934l-1.465,3.961
		l-1.329,3.879l-1.543,3.969l-1.344,3.875l-1.516,3.895c-0.408,1.055,0.137,2.238,1.222,2.635c0.123,0.049,0.254,0.08,0.386,0.103
		c0.969,0.162,1.949-0.363,2.316-1.289l1.541-3.963l1.344-3.879l1.543-3.973l1.34-3.908l1.434-3.875l1.59-3.982l1.318-3.893
		l1.516-3.969l1.334-3.893l1.879-4.9C266.603,446.924,265.532,445.828,264.458,444.732z"/>
	<path style="fill:#FFEC7F;" d="M241.839,511.533c-1.098-0.35-2.288,0.211-2.658,1.281l-1.344,3.9l-4.447,11.818l-1.379,3.887
		l-3.039,7.894l-1.334,3.893l-1.52,3.979l-1.303,3.861l-1.586,3.938l-1.47,3.967l-1.323,3.877l-1.555,3.967l-1.344,3.879
		l-1.52,3.898c-0.414,1.057,0.131,2.232,1.213,2.637c0.125,0.043,0.257,0.078,0.388,0.102c0.97,0.162,1.955-0.357,2.314-1.283
		l1.555-3.969l1.344-3.879l1.555-3.977l1.334-3.91l1.434-3.873l1.605-3.988l1.318-3.893l1.52-3.973l1.329-3.895l3.03-7.861
		l1.383-3.91l4.453-11.818l1.367-3.963C243.529,513.049,242.935,511.892,241.839,511.533z"/>
	<path style="fill:#FFEC7F;" d="M411.15,571.084l-1.525-3.824l-1.44-4.004l-1.553-3.84l-1.455-3.869l-1.416-4.047l-1.547-3.815
		l-1.467-3.988l-1.539-3.83l-2.873-7.902l-1.52-3.867l-4.4-11.83l-1.559-3.904c-0.42-1.047-1.637-1.574-2.713-1.16
		c-1.086,0.408-1.619,1.592-1.201,2.641l1.539,3.846l4.4,11.834l1.51,3.854l2.887,7.922l1.541,3.83l1.469,3.99l1.535,3.787
		l1.398,3.998l1.488,3.957l1.541,3.814l1.434,3.994l1.525,3.83l1.416,3.932c0.256,0.729,0.893,1.215,1.619,1.342
		c0.344,0.055,0.703,0.031,1.051-0.086c1.096-0.375,1.666-1.535,1.283-2.604L411.15,571.084z"/>
	<path style="fill:#FFEC7F;" d="M558.881,453.033l-3.746-2.168l-3.685-1.969l-3.748-2.176l-3.727-1.967l-3.666-2.049l-3.756-2.227
		l-3.707-1.941l-3.756-2.143l-3.709-1.959l-7.426-4.27l-3.482-1.881c-1.223,0.93-2.484,1.793-3.787,2.588l1.482,0.838l3.701,2
		l7.447,4.279l3.709,1.963l3.766,2.143l3.67,1.926l3.711,2.203l3.758,2.094l3.692,1.953l3.742,2.168l3.691,1.967l3.678,2.133
		c0.225,0.135,0.469,0.217,0.715,0.262c0.832,0.137,1.703-0.217,2.162-0.965C560.199,454.863,559.877,453.613,558.881,453.033z"/>
	<path style="fill:#FFEC7F;" d="M539.758,276.857l-12.732,2.158l-4.213,0.828c-1.131,0.217-1.873,1.295-1.643,2.402
		c0.178,0.85,0.871,1.469,1.699,1.607c0.25,0.043,0.514,0.043,0.772-0.01l4.141-0.807l12.74-2.164l4.145-0.781l8.535-1.383
		l4.131-0.822l4.303-0.711l4.088-0.822l4.293-0.637l4.258-0.744l4.119-0.816l4.299-0.678l4.129-0.807l4.223-0.668
		c1.145-0.182,1.924-1.225,1.738-2.346c-0.184-1.108-1.264-1.865-2.406-1.686l-4.301,0.678l-4.131,0.807l-4.303,0.678l-4.15,0.824
		l-4.162,0.725l-4.348,0.648l-4.119,0.832l-4.293,0.707l-4.135,0.822l-8.504,1.375L539.758,276.857z"/>
	<path style="fill:#FFEC7F;" d="M448.728,160.738c0.289,0.223,0.617,0.359,0.955,0.419c0.729,0.122,1.502-0.134,1.992-0.737
		l2.654-3.215l8.322-9.628l2.67-3.2l5.611-6.396l2.631-3.213l2.822-3.232l2.594-3.191l2.859-3.178l2.773-3.234l2.625-3.199
		l2.834-3.211l2.645-3.202l2.787-3.155c0.758-0.855,0.66-2.145-0.217-2.881c-0.879-0.738-2.207-0.636-2.959,0.217l-2.838,3.209
		l-2.643,3.197l-2.846,3.215l-2.641,3.23l-2.707,3.162l-2.895,3.215l-2.619,3.215l-2.811,3.23l-2.639,3.215l-5.59,6.368
		l-2.684,3.216l-8.32,9.627l-2.691,3.264C447.684,158.743,447.83,160.031,448.728,160.738z"/>
	<path style="fill:#FFEC7F;" d="M273.569,84.994l0.865,4.17l0.72,4.389l0.895,4.205l0.778,4.213l0.681,4.429l0.899,4.169
		l0.757,4.371l0.608,2.863c1.509,0.403,3.016,0.816,4.519,1.242l-0.115-0.678l-0.895-4.182l-0.75-4.377l-0.898-4.131l-0.666-4.365
		l-0.796-4.328l-0.886-4.169l-0.721-4.376l-0.87-4.17l-0.705-4.291c-0.179-1.115-1.253-1.873-2.4-1.691
		c-1.146,0.172-1.923,1.219-1.739,2.332L273.569,84.994z"/>
	<path style="fill:#FFEC7F;" d="M129.232,164.529l3.423,2.665l3.443,2.901l3.46,2.674l3.383,2.746l3.436,2.949l3.443,2.643
		l3.459,2.863l3.443,2.664l6.826,5.69l10.287,8.282l1.239,1.032c0.734-0.222,1.476-0.425,2.208-0.653
		c0.833-0.258,1.663-0.526,2.494-0.793l-10.109-8.303l-3.428-2.699l-6.852-5.713l-3.444-2.658l-3.459-2.874l-3.423-2.62
		l-3.393-2.914l-3.465-2.816l-3.434-2.646l-3.43-2.891l-3.423-2.67l-3.378-2.837c-0.878-0.731-2.201-0.641-2.964,0.212
		c-0.752,0.85-0.657,2.144,0.218,2.881L129.232,164.529z"/>
	<path style="fill:#FFEC7F;" d="M112.467,311.49l-5.69-0.065l-4.385,0.127l-4.555-0.035l-4.336,0.152l-4.534-0.127l-4.516,0.01
		l-4.368,0.133l-4.549-0.074l-4.371,0.113l-4.461-0.074c-1.161-0.018-2.115,0.879-2.131,2.002c-0.021,1.027,0.731,1.883,1.732,2.055
		c0.11,0.016,0.218,0.025,0.328,0.025l4.555,0.074l4.363-0.109l4.559,0.074l4.414-0.133l4.389-0.01l4.605,0.121l4.373-0.15
		l4.549,0.039l4.383-0.127l7.123,0.08C113.443,314.227,112.954,312.859,112.467,311.49z"/>
	<path style="fill:#FFEC7F;" d="M173.851,423.662l-2.268,1.938l-10.322,8.406l-3.334,2.807l-6.951,5.586l-3.303,2.838l-3.49,2.816
		l-3.266,2.822l-3.524,2.754l-3.443,2.832l-3.289,2.826l-3.515,2.797l-3.297,2.811l-3.459,2.752c-0.893,0.719-1.024,2-0.293,2.877
		c0.332,0.396,0.783,0.643,1.264,0.721c0.584,0.096,1.199-0.043,1.689-0.436l3.506-2.793l3.303-2.813l3.514-2.803l3.318-2.848
		l3.367-2.768L143.62,454l3.292-2.844l3.487-2.816l3.3-2.838l6.936-5.564l3.345-2.818l10.325-8.412l3.328-2.842l2.207-1.811
		C177.831,423.982,175.831,423.853,173.851,423.662z"/>
	<path style="fill:#FFEC7F;" d="M280.781,474.775c-1.116-0.227-2.243,0.479-2.478,1.588l-0.92,4.334l-0.773,4.35l-0.642,4.229
		l-0.841,4.316l-0.744,4.271l-0.792,4.322l-0.681,4.229l-1.677,8.645l-0.621,4.229l-0.834,4.365l-0.6,4.174l-0.915,4.328
		l-0.772,4.336l-0.621,4.203l-0.867,4.357l-0.643,4.207l-0.85,4.264c-0.225,1.109,0.517,2.188,1.656,2.398
		c0.016,0,0.026,0.006,0.043,0.006c1.123,0.189,2.201-0.527,2.418-1.623l0.862-4.357l0.642-4.201l0.873-4.363l0.632-4.252
		l0.752-4.209l0.925-4.395l0.605-4.221l0.828-4.355l0.627-4.227l1.672-8.605l0.681-4.258l0.789-4.297l0.741-4.248l0.844-4.361
		l0.65-4.258l0.752-4.234l0.91-4.27C282.644,476.088,281.915,475.006,280.781,474.775z"/>
	<path style="fill:#FFEC7F;" d="M433.055,523.279l-0.111-0.18c-1.74-0.119-3.475-0.277-5.203-0.473l1.685,2.713l2.186,3.791
		c0.322,0.559,0.873,0.912,1.471,1.016c0.463,0.072,0.949,0.004,1.383-0.234c1.01-0.553,1.373-1.799,0.809-2.779L433.055,523.279z"
		/>
	<path style="fill:#FFEC7F;" d="M545,402.037l-4.256-1.582l-4.141-1.352l-4.262-1.588l-2.807-0.902
		c0.018,1.43-0.019,2.852-0.125,4.264l1.521,0.488l4.248,1.584l4.147,1.348l4.168,1.559c0.131,0.049,0.264,0.08,0.391,0.107
		c0.973,0.158,1.953-0.359,2.316-1.283C546.615,403.623,546.076,402.441,545,402.037z"/>
	<path style="fill:#FFEC7F;" d="M549.127,238.787c-0.381-1.066-1.58-1.629-2.668-1.256l-4.293,1.453l-4.074,1.549l-4.301,1.459
		l-4.107,1.58l-4.135,1.475l-4.342,1.428l-4.076,1.578l-4.275,1.486l-4.092,1.578l-8.476,2.904l-6.576,2.381
		c0.328,1.342,0.656,2.684,0.975,4.025l2.934-1.031l4.111-1.533l8.51-2.924l4.088-1.576l4.287-1.484l4.035-1.568l4.293-1.406
		l4.232-1.52l4.074-1.564l4.291-1.453l4.08-1.553l4.211-1.428C548.934,241.014,549.51,239.854,549.127,238.787z"/>
	<path style="fill:#FFEC7F;" d="M405.598,167.235l-2.113,3.789l-2.195,3.728l-2.348,3.717c-0.605,0.963-0.295,2.219,0.685,2.808
		c0.238,0.138,0.49,0.235,0.742,0.276c0.822,0.137,1.682-0.213,2.146-0.945l2.379-3.771l2.256-3.825l2.092-3.761l6.766-11.334
		l2.131-3.751l4.598-7.571l2.082-3.761l2.309-3.822l2.045-3.73l2.369-3.756l2.25-3.817l2.068-3.745l2.338-3.805l2.094-3.738
		l2.287-3.73c0.598-0.965,0.273-2.223-0.721-2.799c-0.996-0.58-2.281-0.266-2.875,0.704l-2.336,3.8l-2.086,3.737l-2.344,3.81
		l-2.094,3.781l-2.188,3.713l-2.404,3.814l-2.064,3.766l-2.299,3.815l-2.08,3.767l-4.588,7.532l-6.586,11.298L405.598,167.235z"/>
	<path style="fill:#FFEC7F;" d="M229.849,77.357l1.52,3.809l1.439,4.005l1.541,3.83l1.46,3.854l1.407,4.042l1.551,3.805l1.461,3.983
		l1.54,3.814l0.318,0.875c1.591,0.314,3.188,0.63,4.792,0.951l-1.182-3.258l-1.541-3.814l-1.46-3.988l-1.54-3.771l-1.393-3.996
		l-1.485-3.952l-1.536-3.791l-1.434-3.999l-1.525-3.81l-1.406-3.924c-0.381-1.067-1.572-1.631-2.668-1.259
		c-1.096,0.371-1.672,1.539-1.292,2.606L229.849,77.357z"/>
	<path style="fill:#FFEC7F;" d="M94.242,188.788l3.754,2.175l3.711,1.957l3.654,2.043l3.754,2.229l3.697,1.929l3.75,2.144
		l3.697,1.946l7.416,4.271l3.698,1.999l0.698,0.393c2.211-0.369,4.436-0.68,6.662-0.961l-5.29-2.99l-3.683-1.984l-7.441-4.287
		l-3.698-1.941l-3.755-2.148l-3.666-1.914l-3.698-2.201l-3.755-2.096l-3.677-1.937l-3.742-2.173l-3.677-1.959l-3.669-2.127
		c-0.996-0.576-2.282-0.266-2.875,0.707c-0.595,0.964-0.267,2.223,0.724,2.799l3.736,2.171L94.242,188.788z"/>
	<path style="fill:#FFEC7F;" d="M123.998,342.123c-0.393-0.191-0.844-0.27-1.309-0.185l-4.259,0.742l-4.136,0.816l-12.704,2.15
		l-4.13,0.785l-8.529,1.373l-4.115,0.828l-4.297,0.705l-4.07,0.826l-4.287,0.633l-4.262,0.742l-4.096,0.816l-4.303,0.68
		l-4.104,0.801l-4.217,0.662c-1.143,0.176-1.924,1.227-1.738,2.342c0.147,0.885,0.855,1.543,1.717,1.686
		c0.218,0.035,0.451,0.041,0.688,0.006l4.292-0.674l4.106-0.807l4.316-0.674l4.13-0.83l4.151-0.719l4.348-0.643l4.105-0.832
		l4.287-0.707l4.12-0.826l8.493-1.369l4.156-0.785l12.699-2.152l4.162-0.822l4.217-0.733c0.703-0.123,1.258-0.574,1.536-1.158
		C124.646,343.908,124.324,343.014,123.998,342.123z"/>
	<path style="fill:#FFEC7F;" d="M161.79,488.002l2.618-3.211l5.585-6.357l2.675-3.205l8.302-9.602l2.66-3.23l2.744-3.203
		c0.741-0.865,0.621-2.154-0.265-2.881c-0.889-0.721-2.212-0.605-2.959,0.26l-2.772,3.242l-2.639,3.201l-8.308,9.613l-2.651,3.184
		l-5.611,6.387l-2.621,3.201l-2.816,3.23l-2.59,3.191l-2.854,3.16l-2.768,3.234l-2.609,3.193l-2.844,3.205l-2.621,3.185
		l-2.787,3.147c-0.758,0.855-0.66,2.145,0.217,2.881c0.299,0.256,0.647,0.408,1.012,0.467c0.699,0.123,1.443-0.111,1.947-0.674
		l2.838-3.203l2.621-3.193l2.848-3.209l2.627-3.221l2.707-3.152l2.893-3.207l2.605-3.215L161.79,488.002z"/>
	<path style="fill:#FFEC7F;" d="M212.382,422.49l-0.893,1.02l-2.662,3.32l-3.004,3.293l-2.893,3.373l-2.697,3.332l-2.979,3.348
		l-2.718,3.326l-2.922,3.273c-0.758,0.846-0.663,2.143,0.212,2.881c0.301,0.252,0.65,0.408,1.014,0.473
		c0.703,0.113,1.444-0.119,1.945-0.674l2.975-3.344l2.72-3.324l2.985-3.354l2.723-3.363l2.812-3.277l3.045-3.348l2.691-3.354
		l2.948-3.363l0.488-0.602C216.242,422.227,214.312,422.35,212.382,422.49z"/>
	<path style="fill:#FFEC7F;" d="M309.644,564.795l-0.126-4.106l-0.011-4.102l0.115-4.287l-0.136-4.08l0.031-4.238L309.4,539.9
		l0.092-8.391l-0.092-12.43l0.043-4.244l-0.107-4.125l-0.014-4.178c0-1.127-0.941-2.041-2.101-2.035
		c-1.156,0-2.092,0.924-2.092,2.049l0.011,4.221l0.107,4.096l-0.031,12.561l0.081,4.094l-0.092,8.424l0.121,4.086l-0.034,4.242
		l0.136,4.047l-0.115,4.219l0.014,4.223l0.123,4.063l-0.07,4.242l0.103,4.076l-0.065,4.158c-0.016,1.018,0.741,1.879,1.736,2.047
		c0.111,0.016,0.219,0.025,0.328,0.025c1.161,0.018,2.112-0.881,2.136-2.008l0.065-4.238l-0.109-4.076L309.644,564.795z"/>
	<path style="fill:#FFEC7F;" d="M305.438,494.803c0.306,0.51,0.829,0.881,1.449,0.986c0.104,0.016,0.212,0.025,0.322,0.025
		c0.559,0.01,1.065-0.197,1.447-0.533C307.556,495.215,306.482,495.053,305.438,494.803z"/>
	<path style="fill:#FFEC7F;" d="M481.754,519.912l-2.746-3.256l-2.768-3.088l-2.758-3.273l-2.793-3.092l-2.725-3.145l-2.744-3.316
		l-2.791-3.07l-2.767-3.248l-2.787-3.08l-0.104-0.121c-0.221,0.586-0.449,1.17-0.705,1.74c0.408,1.703,0.828,3.404,1.248,5.105
		l1.928,2.26l2.773,3.053l2.707,3.275l2.791,3.209l2.773,3.078l2.75,3.266l2.767,3.082l2.703,3.215
		c0.332,0.395,0.787,0.635,1.262,0.717c0.586,0.096,1.207-0.043,1.695-0.435C482.359,522.078,482.49,520.787,481.754,519.912z"/>
	<path style="fill:#FFEC7F;" d="M575.707,368.188l-4.277-0.801l-4.135-0.605l-4.297-0.797l-4.168-0.596l-4.15-0.701l-4.316-0.858
		l-4.15-0.574l-4.283-0.768l-4.156-0.59l-8.461-1.553l-4.178-0.639l-4.232-0.736l-0.279-0.047c0.523,1.469,1.041,2.941,1.547,4.418
		l2.268,0.393l4.152,0.637l8.504,1.555l4.156,0.594l4.287,0.768l4.113,0.568l4.248,0.844l4.272,0.721l4.131,0.588l4.281,0.801
		l4.141,0.609l4.191,0.787c1.137,0.166,2.236-0.512,2.455-1.623C577.586,369.48,576.848,368.408,575.707,368.188z"/>
	<path style="fill:#FFEC7F;" d="M550.354,193.931c-0.566-0.984-1.848-1.332-2.854-0.777l-3.783,2.066l-3.594,2.119l-3.793,2.078
		l-3.611,2.139l-3.656,2.066l-3.826,2.055l-3.594,2.143l-3.764,2.09l-3.602,2.139l-7.473,4.121l-3.641,2.121l-11.174,6.261
		l-3.641,2.14l-2.277,1.293c0.395,1.355,0.781,2.713,1.164,4.07l3.262-1.844l3.611-2.133l3.754-2.074l11.047-6.295l7.498-4.139
		l3.602-2.139l3.768-2.095l3.565-2.128l3.787-2.031l3.736-2.109l3.586-2.129l3.785-2.068l3.596-2.121l3.723-2.037
		C550.564,196.16,550.92,194.919,550.354,193.931z"/>
	<path style="fill:#FFEC7F;" d="M387.01,145.985c0.115,0.038,0.234,0.068,0.353,0.093c0.988,0.162,1.979-0.379,2.326-1.323
		l1.471-3.973l1.342-3.884l4.44-11.79l1.367-3.878l3.045-7.877l1.324-3.89l1.52-3.973l1.293-3.845l1.59-3.93l1.471-3.967
		l1.313-3.859l1.555-3.968l1.334-3.865l1.52-3.884c0.414-1.057-0.127-2.232-1.211-2.635c-1.082-0.414-2.293,0.127-2.707,1.176
		l-1.551,3.962l-1.338,3.863l-1.557,3.978l-1.322,3.898l-1.428,3.856l-1.613,3.982l-1.307,3.883l-1.52,3.969l-1.318,3.888
		l-3.035,7.847l-4.281,11.717l-1.539,3.973l-1.344,3.91l-1.455,3.928C385.353,144.431,385.92,145.599,387.01,145.985z"/>
	<path style="fill:#FFEC7F;" d="M382.313,164.521l1.254-3.688l1.603-4.047c0.42-1.056-0.121-2.232-1.201-2.641
		c-1.076-0.417-2.297,0.114-2.711,1.171l-1.641,4.143l-0.473,1.388C380.285,161.978,381.348,163.197,382.313,164.521z"/>
</g>
<path style="fill:#FFFFFF;stroke:#000000;stroke-width:2;stroke-miterlimit:10;" d="M464.348,142.981
	c-3.789-3.789-3.791-9.928-0.004-13.715l65.815-65.814c3.785-3.787,9.928-3.787,13.717,0.002l4.246,4.246
	c3.787,3.789,3.789,9.932,0.002,13.717l-65.813,65.814c-3.789,3.788-9.928,3.785-13.717-0.004L464.348,142.981z"/>
<path style="fill:none;stroke:#000000;stroke-width:2;stroke-miterlimit:10;" d="M548.938,80.602
	c-3.789,3.791-9.93,3.787-13.717-0.002l-4.248-4.246c-3.787-3.789-3.791-9.928,0-13.717"/>
<path style="fill:#FFFFFF;stroke:#000000;stroke-width:2;stroke-miterlimit:10;" d="M218.124,470.08
	c3.787,3.789,3.791,9.93,0.004,13.717l-65.816,65.813c-3.785,3.787-9.927,3.787-13.715-0.002l-4.248-4.246
	c-3.787-3.789-3.787-9.932-0.002-13.717l65.814-65.814c3.789-3.787,9.928-3.785,13.715,0.004L218.124,470.08z"/>
<path style="fill:none;stroke:#000000;stroke-width:2;stroke-miterlimit:10;" d="M133.535,532.461c3.789-3.793,9.93-3.787,13.717,0
	l4.248,4.248c3.786,3.787,3.789,9.926,0,13.717"/>
<polyline style="fill:#FFFFFF;stroke:#000000;stroke-width:2;stroke-miterlimit:10;" points="80.876,107.709 89.65,92.155 
	167.275,70.515 178.386,110.369 169.613,125.919 "/>
<line style="fill:#FFFFFF;stroke:#000000;stroke-width:2;stroke-miterlimit:10;" x1="167.275" y1="70.515" x2="158.503" y2="86.068"/>
<g>
	
		<line style="fill:none;stroke:#000000;stroke-width:2;stroke-linecap:round;stroke-linejoin:round;stroke-miterlimit:10;" x1="418.254" y1="154.046" x2="424.935" y2="160.315"/>
	
		<line style="fill:none;stroke:#000000;stroke-width:2;stroke-linecap:round;stroke-linejoin:round;stroke-miterlimit:10;" x1="424.73" y1="153.837" x2="418.461" y2="160.522"/>
</g>
<g>
	
		<line style="fill:none;stroke:#000000;stroke-width:2;stroke-linecap:round;stroke-linejoin:round;stroke-miterlimit:10;" x1="262.69" y1="110.338" x2="269.371" y2="116.607"/>
	
		<line style="fill:none;stroke:#000000;stroke-width:2;stroke-linecap:round;stroke-linejoin:round;stroke-miterlimit:10;" x1="269.167" y1="110.129" x2="262.897" y2="116.814"/>
</g>
<g>
	
		<line style="fill:none;stroke:#000000;stroke-width:2;stroke-linecap:round;stroke-linejoin:round;stroke-miterlimit:10;" x1="179.981" y1="161.876" x2="186.663" y2="168.144"/>
	
		<line style="fill:none;stroke:#000000;stroke-width:2;stroke-linecap:round;stroke-linejoin:round;stroke-miterlimit:10;" x1="186.458" y1="161.667" x2="180.188" y2="168.351"/>
</g>
<g>
	
		<line style="fill:none;stroke:#000000;stroke-width:2;stroke-linecap:round;stroke-linejoin:round;stroke-miterlimit:10;" x1="133.535" y1="208.829" x2="140.216" y2="215.097"/>
	
		<line style="fill:none;stroke:#000000;stroke-width:2;stroke-linecap:round;stroke-linejoin:round;stroke-miterlimit:10;" x1="140.011" y1="208.62" x2="133.742" y2="215.304"/>
</g>
<g>
	
		<line style="fill:none;stroke:#000000;stroke-width:2;stroke-linecap:round;stroke-linejoin:round;stroke-miterlimit:10;" x1="133.535" y1="404.301" x2="140.216" y2="410.568"/>
	
		<line style="fill:none;stroke:#000000;stroke-width:2;stroke-linecap:round;stroke-linejoin:round;stroke-miterlimit:10;" x1="140.011" y1="404.092" x2="133.742" y2="410.775"/>
</g>
<g>
	
		<line style="fill:none;stroke:#000000;stroke-width:2;stroke-linecap:round;stroke-linejoin:round;stroke-miterlimit:10;" x1="229.268" y1="433.629" x2="235.95" y2="439.896"/>
	
		<line style="fill:none;stroke:#000000;stroke-width:2;stroke-linecap:round;stroke-linejoin:round;stroke-miterlimit:10;" x1="235.745" y1="433.42" x2="229.475" y2="440.103"/>
</g>
<g>
	
		<line style="fill:none;stroke:#000000;stroke-width:2;stroke-linecap:round;stroke-linejoin:round;stroke-miterlimit:10;" x1="239.268" y1="480.795" x2="245.95" y2="487.063"/>
	
		<line style="fill:none;stroke:#000000;stroke-width:2;stroke-linecap:round;stroke-linejoin:round;stroke-miterlimit:10;" x1="245.745" y1="480.586" x2="239.475" y2="487.27"/>
</g>
<g>
	
		<line style="fill:none;stroke:#000000;stroke-width:2;stroke-linecap:round;stroke-linejoin:round;stroke-miterlimit:10;" x1="480.602" y1="504.586" x2="487.283" y2="510.853"/>
	
		<line style="fill:none;stroke:#000000;stroke-width:2;stroke-linecap:round;stroke-linejoin:round;stroke-miterlimit:10;" x1="487.078" y1="504.377" x2="480.809" y2="511.06"/>
</g>
<g>
	
		<line style="fill:none;stroke:#000000;stroke-width:2;stroke-linecap:round;stroke-linejoin:round;stroke-miterlimit:10;" x1="465.611" y1="443.758" x2="472.293" y2="450.025"/>
	
		<line style="fill:none;stroke:#000000;stroke-width:2;stroke-linecap:round;stroke-linejoin:round;stroke-miterlimit:10;" x1="472.088" y1="443.549" x2="465.818" y2="450.232"/>
</g>
<g>
	
		<line style="fill:none;stroke:#000000;stroke-width:2;stroke-linecap:round;stroke-linejoin:round;stroke-miterlimit:10;" x1="559.805" y1="407.642" x2="566.486" y2="413.91"/>
	
		<line style="fill:none;stroke:#000000;stroke-width:2;stroke-linecap:round;stroke-linejoin:round;stroke-miterlimit:10;" x1="566.281" y1="407.434" x2="560.012" y2="414.117"/>
</g>
<g>
	
		<line style="fill:none;stroke:#000000;stroke-width:2;stroke-linecap:round;stroke-linejoin:round;stroke-miterlimit:10;" x1="506.869" y1="328.545" x2="513.551" y2="334.814"/>
	
		<line style="fill:none;stroke:#000000;stroke-width:2;stroke-linecap:round;stroke-linejoin:round;stroke-miterlimit:10;" x1="513.346" y1="328.336" x2="507.076" y2="335.021"/>
</g>
<g>
	
		<line style="fill:none;stroke:#000000;stroke-width:2;stroke-linecap:round;stroke-linejoin:round;stroke-miterlimit:10;" x1="556.463" y1="37.239" x2="563.144" y2="43.507"/>
	
		<line style="fill:none;stroke:#000000;stroke-width:2;stroke-linecap:round;stroke-linejoin:round;stroke-miterlimit:10;" x1="562.939" y1="37.03" x2="556.67" y2="43.714"/>
</g>
<g>
	
		<line style="fill:none;stroke:#000000;stroke-width:2;stroke-linecap:round;stroke-linejoin:round;stroke-miterlimit:10;" x1="116.284" y1="576.91" x2="122.965" y2="583.18"/>
	
		<line style="fill:none;stroke:#000000;stroke-width:2;stroke-linecap:round;stroke-linejoin:round;stroke-miterlimit:10;" x1="122.76" y1="576.701" x2="116.491" y2="583.387"/>
</g>
<g>
	
		<line style="fill:none;stroke:#000000;stroke-width:2;stroke-linecap:round;stroke-linejoin:round;stroke-miterlimit:10;" x1="364.348" y1="580.043" x2="371.029" y2="586.313"/>
	
		<line style="fill:none;stroke:#000000;stroke-width:2;stroke-linecap:round;stroke-linejoin:round;stroke-miterlimit:10;" x1="370.824" y1="579.834" x2="364.555" y2="586.519"/>
</g>
<g>
	
		<line style="fill:none;stroke:#000000;stroke-width:2;stroke-linecap:round;stroke-linejoin:round;stroke-miterlimit:10;" x1="581.619" y1="167.573" x2="588.301" y2="173.841"/>
	
		<line style="fill:none;stroke:#000000;stroke-width:2;stroke-linecap:round;stroke-linejoin:round;stroke-miterlimit:10;" x1="588.096" y1="167.364" x2="581.826" y2="174.048"/>
</g>
<g>
	
		<line style="fill:none;stroke:#000000;stroke-width:2;stroke-linecap:round;stroke-linejoin:round;stroke-miterlimit:10;" x1="86.799" y1="498.063" x2="93.481" y2="504.332"/>
	
		<line style="fill:none;stroke:#000000;stroke-width:2;stroke-linecap:round;stroke-linejoin:round;stroke-miterlimit:10;" x1="93.276" y1="497.853" x2="87.006" y2="504.539"/>
</g>
<g>
	
		<line style="fill:none;stroke:#000000;stroke-width:2;stroke-linecap:round;stroke-linejoin:round;stroke-miterlimit:10;" x1="110.83" y1="46.221" x2="117.511" y2="52.49"/>
	
		<line style="fill:none;stroke:#000000;stroke-width:2;stroke-linecap:round;stroke-linejoin:round;stroke-miterlimit:10;" x1="117.306" y1="46.012" x2="111.037" y2="52.697"/>
</g>
<g>
	
		<line style="fill:none;stroke:#000000;stroke-width:2;stroke-linecap:round;stroke-linejoin:round;stroke-miterlimit:10;" x1="588.973" y1="534.332" x2="595.654" y2="540.6"/>
	
		<line style="fill:none;stroke:#000000;stroke-width:2;stroke-linecap:round;stroke-linejoin:round;stroke-miterlimit:10;" x1="595.449" y1="534.123" x2="589.18" y2="540.807"/>
</g>
<path style="fill:none;stroke:#000000;stroke-width:2;stroke-linecap:round;stroke-linejoin:round;stroke-miterlimit:10;" d="
	M391.752,148.997c-1.752,1.101-4.06,0.575-5.162-1.177c-1.102-1.749-0.574-4.059,1.174-5.16c1.75-1.1,4.063-0.574,5.162,1.176
	C394.027,145.585,393.498,147.896,391.752,148.997z"/>
<path style="fill:none;stroke:#000000;stroke-width:2;stroke-linecap:round;stroke-linejoin:round;stroke-miterlimit:10;" d="
	M410.895,141.51c-1.752,1.101-4.061,0.575-5.162-1.177c-1.102-1.749-0.574-4.059,1.176-5.16c1.748-1.1,4.06-0.574,5.16,1.176
	C413.17,138.099,412.642,140.41,410.895,141.51z"/>
<path style="fill:none;stroke:#000000;stroke-width:2;stroke-linecap:round;stroke-linejoin:round;stroke-miterlimit:10;" d="
	M109.762,384.424c-1.856,0.912-4.099,0.148-5.012-1.707c-0.913-1.855-0.148-4.098,1.706-5.012c1.854-0.91,4.099-0.148,5.01,1.707
	C112.38,381.267,111.616,383.51,109.762,384.424z"/>
<path style="fill:none;stroke:#000000;stroke-width:2;stroke-linecap:round;stroke-linejoin:round;stroke-miterlimit:10;" d="
	M177.891,192.086c-1.856,0.912-4.099,0.148-5.012-1.707c-0.913-1.855-0.149-4.098,1.706-5.011c1.854-0.911,4.099-0.148,5.01,1.706
	C180.509,188.93,179.745,191.173,177.891,192.086z"/>
<path style="fill:none;stroke:#000000;stroke-width:2;stroke-linecap:round;stroke-linejoin:round;stroke-miterlimit:10;" d="
	M260.6,455.592c-1.857,0.912-4.099,0.148-5.012-1.707c-0.913-1.855-0.148-4.098,1.706-5.012c1.853-0.91,4.099-0.148,5.01,1.707
	C263.218,452.435,262.454,454.678,260.6,455.592z"/>
<path style="fill:none;stroke:#000000;stroke-width:2;stroke-linecap:round;stroke-linejoin:round;stroke-miterlimit:10;" d="
	M456.32,504.555c-1.855,0.912-4.098,0.148-5.012-1.707c-0.912-1.855-0.148-4.098,1.707-5.012c1.854-0.91,4.098-0.148,5.01,1.707
	C458.939,501.398,458.174,503.641,456.32,504.555z"/>
<path style="fill:none;stroke:#000000;stroke-width:2;stroke-linecap:round;stroke-linejoin:round;stroke-miterlimit:10;" d="
	M466.863,480.199c-1.857,0.912-4.1,0.148-5.012-1.707c-0.914-1.855-0.148-4.098,1.705-5.01c1.853-0.912,4.1-0.148,5.01,1.705
	C469.48,477.043,468.717,479.287,466.863,480.199z"/>
<path style="fill:none;stroke:#000000;stroke-width:2;stroke-linecap:round;stroke-linejoin:round;stroke-miterlimit:10;" d="
	M552.615,391.564c-1.855,0.912-4.098,0.148-5.012-1.707c-0.912-1.855-0.148-4.098,1.707-5.01c1.854-0.912,4.098-0.148,5.01,1.705
	C555.234,388.408,554.469,390.652,552.615,391.564z"/>
<path style="fill:none;stroke:#000000;stroke-width:2;stroke-linecap:round;stroke-linejoin:round;stroke-miterlimit:10;" d="
	M155.995,180.918c-1.856,0.912-4.099,0.148-5.012-1.707c-0.913-1.855-0.149-4.098,1.706-5.011c1.854-0.911,4.099-0.148,5.01,1.706
	C158.613,177.762,157.848,180.005,155.995,180.918z"/>
<polygon style="fill:#FFEC00;stroke:#000000;stroke-width:2;stroke-miterlimit:10;" points="568.371,343.014 584.057,348.328 
	586.188,331.955 588.326,315.578 570.512,326.645 552.685,337.703 "/>
<polygon style="fill:#FFEC00;stroke:#000000;stroke-width:2;stroke-miterlimit:10;" points="84.395,317.711 71.14,307.779 
	64.023,322.678 56.896,337.578 77.269,332.603 97.65,327.637 "/>
<path style="fill:#FFEC00;stroke:#000000;stroke-width:2;stroke-miterlimit:10;" d="M563.144,142.947
	c0,5.776-4.684,10.459-10.459,10.459c-5.777,0-10.459-4.683-10.459-10.459c0-5.776,4.682-10.46,10.459-10.46
	C558.461,132.487,563.144,137.17,563.144,142.947z"/>
<path style="fill:#35A8E0;stroke:#000000;stroke-width:2;stroke-miterlimit:10;" d="M580.965,572.719
	c0,5.775-4.684,10.459-10.459,10.459c-5.777,0-10.459-4.684-10.459-10.459c0-5.777,4.682-10.461,10.459-10.461
	C576.281,562.258,580.965,566.941,580.965,572.719z"/>
<path style="fill:#35A8E0;stroke:#000000;stroke-width:2;stroke-miterlimit:10;" d="M75.299,552.449
	c0,5.775-4.685,10.459-10.46,10.459c-5.776,0-10.459-4.684-10.459-10.459c0-5.777,4.683-10.461,10.459-10.461
	C70.615,541.988,75.299,546.672,75.299,552.449z"/>
<path style="fill:none;stroke:#000000;stroke-width:2;stroke-miterlimit:10;" d="M108.11,263.256c0,5.775-4.685,10.459-10.46,10.459
	c-5.776,0-10.459-4.684-10.459-10.459c0-5.777,4.683-10.461,10.459-10.461C103.425,252.795,108.11,257.478,108.11,263.256z"/>
<path style="fill:none;stroke:#000000;stroke-width:2;stroke-miterlimit:10;" d="M75.299,49.14c0,5.776-4.685,10.459-10.46,10.459
	c-5.776,0-10.459-4.683-10.459-10.459s4.683-10.46,10.459-10.46C70.615,38.68,75.299,43.364,75.299,49.14z"/>
<path style="fill:none;stroke:#000000;stroke-width:2;stroke-miterlimit:10;" d="M199.305,577.188
	c0,5.775-4.685,10.459-10.46,10.459c-5.776,0-10.459-4.684-10.459-10.459c0-5.777,4.683-10.461,10.459-10.461
	C194.621,566.727,199.305,571.41,199.305,577.188z"/>
<path style="fill:#35A8E0;stroke:#000000;stroke-width:2;stroke-miterlimit:10;" d="M528.889,284.779
	c0,5.775-4.684,10.459-10.459,10.459c-5.777,0-10.459-4.684-10.459-10.459c0-5.777,4.682-10.461,10.459-10.461
	C524.205,274.318,528.889,279.002,528.889,284.779z"/>
<path style="fill:#35A8E0;stroke:#000000;stroke-width:2;stroke-miterlimit:10;" d="M295.781,66.997
	c0.02-0.075,0.047-0.147,0.065-0.226c2.098-8.533-3.128-17.151-11.662-19.244c-8.535-2.094-17.152,3.127-19.248,11.662
	c-0.018,0.077-0.024,0.154-0.043,0.231L295.781,66.997z"/>
<path style="fill:#FFEC00;stroke:#000000;stroke-width:2;stroke-miterlimit:10;" d="M504.146,539.941
	c-0.029,0.072-0.064,0.143-0.094,0.217c-3.137,8.207,0.98,17.408,9.189,20.541c8.211,3.135,17.408-0.979,20.545-9.188
	c0.025-0.076,0.043-0.15,0.07-0.225L504.146,539.941z"/>
<rect x="303.043" y="536.622" transform="matrix(0.3403 -0.9403 0.9403 0.3403 -309.117 664.2931)" style="fill:none;stroke:#000000;stroke-width:2;stroke-miterlimit:10;" width="31.655" height="31.652"/>
<rect x="342.708" y="71.147" transform="matrix(0.9891 -0.1475 0.1475 0.9891 -8.9083 53.8478)" style="fill:none;stroke:#000000;stroke-width:2;stroke-miterlimit:10;" width="31.652" height="31.655"/>
<rect x="571.196" y="230.391" transform="matrix(0.3752 -0.927 0.927 0.3752 140.3899 688.5908)" style="fill:#FFFFFF;stroke:#000000;stroke-width:2;stroke-miterlimit:10;" width="19.538" height="19.538"/>
<rect x="211.197" y="47.428" transform="matrix(0.9166 -0.3997 0.3997 0.9166 -4.442 93.0963)" style="fill:#FFEC00;stroke:#000000;stroke-width:2;stroke-miterlimit:10;" width="19.538" height="19.538"/>
<rect x="259.775" y="502.025" transform="matrix(0.996 -0.0889 0.0889 0.996 -44.4151 25.9784)" style="fill:#FFFFFF;stroke:#000000;stroke-width:2;stroke-miterlimit:10;" width="19.537" height="19.538"/>
<g>
	<polyline style="fill:none;stroke:#FFFFFF;stroke-width:3;stroke-miterlimit:10;" points="46.189,210.857 56.644,195.517 
		71.49,206.067 	"/>
	<polyline style="fill:none;stroke:#FFFFFF;stroke-width:3;stroke-miterlimit:10;" points="71.49,206.067 81.945,190.728 
		96.791,201.277 	"/>
</g>
<g>
	<polyline style="fill:none;stroke:#FFFFFF;stroke-width:3;stroke-miterlimit:10;" points="433.584,84.413 436.795,66.128 
		454.668,69.628 	"/>
	<polyline style="fill:none;stroke:#FFFFFF;stroke-width:3;stroke-miterlimit:10;" points="454.668,69.628 457.877,51.345 
		475.75,54.844 	"/>
</g>
<g>
	<polyline style="fill:none;stroke:#FFFFFF;stroke-width:3;stroke-miterlimit:10;" points="397.793,542.514 416.318,541.309 
		417.145,559.5 	"/>
	<polyline style="fill:none;stroke:#FFFFFF;stroke-width:3;stroke-miterlimit:10;" points="417.145,559.5 435.67,558.295 
		436.496,576.488 	"/>
</g>
<g>
	<g>
		<polyline style="fill:none;stroke:#000000;stroke-width:2;stroke-miterlimit:10;" points="498.209,227.594 500.674,209.193 
			518.674,211.962 		"/>
		<polyline style="fill:none;stroke:#000000;stroke-width:2;stroke-miterlimit:10;" points="518.674,211.962 521.137,193.562 
			539.137,196.331 		"/>
		<path style="fill:none;stroke:#000000;stroke-width:2;stroke-miterlimit:10;" d="M539.137,196.331"/>
	</g>
	
		<line style="fill:none;stroke:#000000;stroke-width:2;stroke-miterlimit:10;" x1="506.205" y1="238.061" x2="546.639" y2="207.175"/>
</g>
<g>
	<g>
		<polyline style="fill:none;stroke:#000000;stroke-width:2;stroke-miterlimit:10;" points="62.309,441.412 74.198,427.154 
			87.955,439.088 		"/>
		<polyline style="fill:none;stroke:#000000;stroke-width:2;stroke-miterlimit:10;" points="87.955,439.088 99.842,424.828 
			113.599,436.762 		"/>
		<path style="fill:none;stroke:#000000;stroke-width:2;stroke-miterlimit:10;" d="M113.599,436.762"/>
	</g>
	<line style="fill:none;stroke:#000000;stroke-width:2;stroke-miterlimit:10;" x1="63.5" y1="454.529" x2="114.17" y2="449.935"/>
</g>
<linearGradient id="SVGID_1_" gradientUnits="userSpaceOnUse" x1="208.396" y1="172.8555" x2="361.2187" y2="172.8555">
	<stop  offset="0" style="stop-color:#FFFFFF"/>
	<stop  offset="1" style="stop-color:#D9D9D9"/>
</linearGradient>
<polyline style="fill:url(#SVGID_1_);stroke:#000000;stroke-width:2;stroke-miterlimit:10;" points="361.219,171.888 
	228.04,124.071 208.396,221.64 "/>
<linearGradient id="SVGID_00000001665587394880505290000013404481041340426660_" gradientUnits="userSpaceOnUse" x1="398.6776" y1="497.2468" x2="374.8059" y2="442.3416">
	<stop  offset="0" style="stop-color:#FFFFFF"/>
	<stop  offset="1" style="stop-color:#D9D9D9"/>
</linearGradient>
<polyline style="fill:url(#SVGID_00000001665587394880505290000013404481041340426660_);stroke:#000000;stroke-width:2;stroke-miterlimit:10;" points="
	319.197,469.471 427.752,495.244 435.443,426.777 "/>
<linearGradient id="SVGID_00000101089268593031098440000004341832840244783512_" gradientUnits="userSpaceOnUse" x1="387.9728" y1="195.1603" x2="148.0378" y2="250.2802">
	<stop  offset="0" style="stop-color:#FFFFFF"/>
	<stop  offset="1" style="stop-color:#D9D9D9"/>
</linearGradient>
<polyline style="fill:url(#SVGID_00000101089268593031098440000004341832840244783512_);stroke:#000000;stroke-width:2;stroke-miterlimit:10;" points="
	131.507,240.16 361.219,171.888 394.978,222.969 "/>
<linearGradient id="SVGID_00000119819119572865394140000005081349253055344292_" gradientUnits="userSpaceOnUse" x1="375.5841" y1="461.349" x2="385.0255" y2="360.6347">
	<stop  offset="0" style="stop-color:#FFFFFF"/>
	<stop  offset="1" style="stop-color:#D9D9D9"/>
</linearGradient>
<polyline style="fill:url(#SVGID_00000119819119572865394140000005081349253055344292_);stroke:#000000;stroke-width:2;stroke-miterlimit:10;" points="
	506.234,401.199 319.197,469.471 256.292,400.334 "/>
<polygon style="fill:#FFFFFF;stroke:#000000;stroke-width:2;stroke-miterlimit:10;" points="448.488,207.537 131.507,240.16 
	162.064,399.873 506.232,401.199 "/>
<rect x="84.951" y="96.128" transform="matrix(0.9633 -0.2685 0.2685 0.9633 -26.7686 37.9235)" style="fill:#FFFFFF;stroke:#000000;stroke-width:2;stroke-miterlimit:10;" width="80.587" height="41.371"/>
<polyline style="fill:#FFFFFF;stroke:#000000;stroke-width:2;stroke-miterlimit:10;" points="505.707,446.891 520.414,436.762 
	599.664,451.367 592.168,492.057 577.461,502.182 "/>
<line style="fill:#FFFFFF;stroke:#000000;stroke-width:2;stroke-miterlimit:10;" x1="599.664" y1="451.367" x2="584.961" y2="461.496"/>
<rect x="520.899" y="434.242" transform="matrix(0.1812 -0.9834 0.9834 0.1812 -23.2495 921.1465)" style="fill:#FFFFFF;stroke:#000000;stroke-width:2;stroke-miterlimit:10;" width="41.371" height="80.588"/>
<g>
	<g>
		<path style="stroke:#000000;stroke-miterlimit:10;" d="M245.218,269.065c1.691,0,3.381,0.12,3.863,0.603
			c0,0.604,0,1.207,0.121,1.569c0,1.087,0,1.811-0.121,2.294c0.121,0.604,0.242,1.69,0.242,3.261l0.12,19.318v7.486
			c0,0.845,0,2.053,0.121,3.743v3.501c0,0.604,0,1.69,0.121,3.14v3.381c0,2.777,0,4.83,0.12,6.158c0,0.846,0,1.932,0.121,3.502
			v3.381c0,0.482,0,1.449,0.121,2.898c0,1.328,0,2.414,0.12,3.26c0,0.604,0,1.568,0.121,2.777v2.535
			c0.12,1.328,0.12,3.26,0.12,5.553c0,1.209,0.121,2.658,0.242,4.227c0,0.242,0,0.603,0.12,0.967v2.293c0,0.363,0,0.725,0.121,1.209
			v1.689c0,0.121-0.725,0.482-2.053,0.846h-1.449c-1.932,0-3.984-0.121-3.984-1.088v-0.119c0-0.363-0.241-1.813-0.362-2.174v-3.381
			c-0.12-0.846-0.12-2.053-0.12-3.744v-1.689c-0.121-0.846-0.121-1.449-0.121-1.811v-3.141c-0.121-1.086-0.121-1.811-0.121-2.293
			c-0.12-1.088-0.12-2.656-0.12-4.709v-3.744c-0.121-1.449-0.121-2.656-0.241-3.5c0-0.605-0.242-2.295-0.242-2.898v-0.846
			c0-1.207,0-2.053-0.12-2.535l-2.536-0.242c-0.241,0-0.604,0-1.207,0.121h-2.898c-0.724,0.121-1.207,0.121-1.569,0.242h-3.26
			c-0.242,9.779,0,15.213,0,16.42v6.158c-0.121,0.604-0.121,1.449-0.121,2.535v12.799c0,0.363-1.69,0.604-5.191,0.604
			c-1.328,0-1.933-0.24-1.933-0.725c0-0.119,0-0.361-0.12-0.844v-3.502c0.12-1.086,0.12-1.932,0.12-2.295
			c0-0.121,0-0.361-0.12-0.603V341.51c0.12-2.777,0.12-4.949,0.12-6.762v-3.863c0-2.656-0.362-11.833-0.362-14.61
			c-0.12-0.845-0.12-1.932-0.12-3.381v-0.12l-0.242-10.988l-0.241-8.693c0-0.845,0-2.053-0.12-3.622v-3.019
			c-0.121-1.207-0.121-2.897-0.121-5.071c-0.121-5.313-0.362-8.21-0.483-10.987c0-0.725,2.295-0.966,3.743-0.966
			c0.846-0.121,1.449-0.242,1.932-0.362h0.604c1.328,0,1.328,0,1.328,1.328v0.241c0,1.328,0.12,2.536,0.241,3.622
			c0,2.053,0,2.415,0.121,3.381c0,0.966,0,2.415,0.12,4.227c0,1.811,0,3.139,0.121,3.984v4.105c0,1.086,0,1.69,0.121,1.932v2.294
			c-0.121,0.362-0.121,0.604-0.121,0.845c0,0.121,0,0.483,0.121,0.846v4.588c0.12,0.604,0.12,1.57,0.12,2.898v1.569
			c-0.12,0.725-0.12,1.207-0.12,1.569c0.12,0.966,0.241,1.69,0.241,2.053v0.966v3.381h0.241c0.604,0,1.449,0,1.812,0.121
			l3.984,0.362l5.796-0.241l-0.121-4.589c0-2.053-0.121-2.777-0.241-3.743c0-0.12,0-0.604,0.12-1.69
			c0-1.086,0.121-1.811,0.242-2.414c-0.242-0.362-0.362-1.087-0.362-2.174v-1.328l-0.121-3.502c0-0.966,0-2.414-0.121-4.347
			c0-1.932,0-3.381-0.12-4.226c0-1.69,0-2.053-0.121-2.656c0-1.328,0-2.294-0.121-2.898c0-0.603-0.12-1.81-0.12-2.776V271.6
			c0.12-0.845,0.12-1.449,0.12-1.811c0-0.362,0.725-0.604,2.174-0.725H245.218z"/>
		<path style="stroke:#000000;stroke-miterlimit:10;" d="M285.909,269.91c0.241,0,0.482,0.483,0.604,1.57
			c0.12,0.361,0.12,0.966,0.12,1.811c0,0.846,0,1.087-0.12,1.449c-0.121,1.449-0.242,2.294-0.362,2.535
			c-0.121,0.242-0.966,0.362-2.415,0.362h-1.087c-3.018,0-4.95,0-5.675,0.121l-10.263,0.362v12.799c0,0.966,0.12,2.535,0.241,4.588
			c0.121,0.362,0.121,0.966,0,1.69c-0.121,0.725-0.121,1.207-0.121,1.449v1.086c0.121,0.967,0.121,2.295,0.121,3.864v3.381
			c0.121,1.328,0.121,2.294,0.121,2.777l0.362,7.123c0.361,0.121,4.588,0.483,6.641,0.483h3.501h0.846
			c1.087,0,2.173,0.121,2.294,0.241c0.603,0.121,0.483,1.328,0.603,2.657c0.121,0.482,0.242,1.086,0.242,1.932
			c0,0.482-0.121,0.967-0.242,1.449c0,1.207,0.241,1.811-0.362,1.811l-13.765,0.604l-0.362,23.545l9.901,0.242
			c4.829,0,7.849,0.121,9.056,0.242c0.604,0.119,0.966,1.932,0.966,5.313c0,1.811-0.121,2.656-0.483,2.656
			c-0.724,0.121-1.932,0.121-3.501,0.121c-0.362,0.119-1.449,0.119-3.502,0.119h-5.313l-14.609-0.24
			c-0.362,0-0.605-1.813-0.605-5.313v-3.744v-3.018c0-3.26,0.121-4.227,0.242-7.728v-2.898v-6.156c0.12-2.656,0.12-4.83,0.12-6.279
			c0-2.535,0-4.347-0.12-5.675v-1.086c0.12-0.362,0.12-0.725,0.12-0.967c0-0.604,0-1.448-0.12-2.535
			c-0.121-1.087-0.121-1.932-0.121-2.415c0-0.241,0-0.604,0.121-0.966v-0.845c-0.121-1.811-0.121-4.468-0.121-7.727
			c-0.121-10.143-0.241-15.939-0.241-17.508c0-7.365,0.362-11.712,1.087-13.161c0.12-0.241,1.811-0.483,5.191-0.604h0.966
			c1.811,0,5.192,0.12,6.883,0.12c3.743,0,7.728,0,8.693-0.12c0.603,0.12,1.328,0.12,2.415,0.241c0.966,0,1.569,0.121,1.932,0.241
			H285.909z"/>
		<path style="stroke:#000000;stroke-miterlimit:10;" d="M321.889,359.017h-0.121c-0.121,0-0.361,0.121-0.725,0.242
			c-0.482,0.121-0.846,0.242-1.208,0.361c-0.482-0.119-0.845-0.24-1.207-0.24c-0.121,0-0.362,0-0.725,0.121h-0.725h-0.241
			c-0.241,0.119-0.482,0.119-0.603,0.119c-0.121,0-0.241,0-0.483-0.119h-0.362c-0.845,0-1.448,0-1.932-0.121
			c-1.087,0.121-3.381,0.24-6.762,0.24c-0.845,0-1.569,0-2.173-0.119c-1.087,0.119-2.777,0.119-4.83,0.119
			c-0.362,0-0.966,0-1.569,0.121h-1.208c-1.086,0-1.69-0.121-1.811-0.361l-0.242-0.967c0-0.121,0-0.361-0.12-0.725v-1.086v-0.242
			c0-0.121,0-0.361-0.121-0.725v-0.725v-0.119c0-0.242,0-0.484,0.121-0.605c-0.121-0.361-0.121-0.965-0.241-1.69
			c0-0.967,0-1.57-0.121-1.932c-0.121-0.363-0.121-0.846-0.121-1.57v-0.846c0-0.604,0-1.086,0.121-1.689l-0.121-4.588
			c0-1.57-0.12-8.572-0.362-15.334c-0.12-6.642-0.241-11.955-0.241-15.818l-0.121-2.777c0-1.207,0-2.053-0.12-2.535
			c0.12-0.846,0.241-1.69,0.241-2.657v-0.966l-0.121-2.173v-0.725c0-0.603,0-1.207,0.121-1.69c0-1.328-0.121-2.174-0.241-2.535
			c0.12-1.933,0.241-2.777,0.241-3.623c0-1.086-0.121-1.932-0.121-4.709c0.121-1.811,0.242-5.313,0.242-6.157v-3.984v-1.329
			c0-0.604,0-1.569-0.121-2.897c0-1.207-0.121-1.812,0.241-2.173c0.242-0.121,0.725-0.242,1.449-0.242h3.864
			c1.086,0,1.569,0,1.811,0.362c0.362,0.362,0.241,0.966,0.121,2.174c0,1.087,0,3.501-0.121,5.675v2.777
			c0,3.742,0,8.21,0.121,12.557c-0.121,1.812-0.121,3.019-0.121,3.743v0.483c0,0.724,0.121,2.053,0.241,3.984l0.242,9.056
			l0.362,20.165l0.12,6.037c0.121,1.811,0.242,6.277,0.242,7.727v1.81v2.053v1.328v1.088h5.313c1.448,0,3.984-0.121,7.485-0.242
			c3.502-0.121,5.313-0.24,5.555-0.24h0.361c0.242,0,0.363,0.361,0.482,1.086c0.121,0.846,0.121,1.689,0.242,2.777
			c0.121,1.086-0.121,1.932,0,2.293L321.889,359.017z"/>
		<path style="stroke:#000000;stroke-miterlimit:10;" d="M336.498,269.547v2.174v0.604v0.725v4.105
			c-0.121,2.053-0.121,3.743-0.121,5.071v2.414v2.295v12.678v10.625c-0.121,11.954-0.242,18.958-0.242,20.889
			c0.121,0.604,0.121,1.568,0.121,2.656v3.621v4.59v4.467v3.863l2.416-0.24c1.689-0.121,3.018-0.242,3.863-0.242h0.965h1.328h1.209
			c0.482-0.121,0.844-0.121,1.086-0.121h0.967h0.725c0.604,0,1.086,0,1.207,0.121c0.24,0,0.361,0.604,0.361,1.689
			c0,0.242,0,0.725-0.121,1.328v1.328v0.605c0,1.811-0.119,2.775-0.482,2.775c-0.242,0-0.725,0.121-1.328,0.363h-2.053
			c-0.965,0.121-1.811,0.121-2.535,0.121h-2.053c-0.967-0.121-1.81-0.121-2.656-0.121h-0.725c-0.482,0.121-1.086,0.121-1.691,0.121
			h-0.723h-0.725h-1.328c-0.725,0-1.57,0-2.416,0.121h-1.568h-0.846c-0.604-0.121-0.846-0.484-0.846-1.088v-1.207v-2.535
			c-0.121-0.242-0.121-0.603-0.121-1.088c0-0.361,0.121-1.086,0.242-2.172c-0.121-1.088-0.121-2.537-0.121-4.469
			c-0.121-1.086-0.121-2.897-0.121-5.191v-5.555c0-2.293,0.121-4.105,0.242-5.313c-0.121-0.725-0.121-1.689-0.121-3.018
			c-0.121-1.328-0.121-2.174-0.121-2.537c0.121-1.086,0.121-2.896,0.121-5.433v-11.35c0-0.725,0-1.811,0.121-3.26v-3.381
			c0-1.449,0-1.691-0.121-2.536c0.121-1.086,0.121-2.656,0.121-4.708c0-1.087,0-2.536,0.121-4.348v-4.104v-5.192v-2.053v-0.725
			c-0.121-0.12-0.121-0.362-0.121-0.724c0.121-0.483,0.121-1.087,0.121-1.69c0-0.604,0-1.57-0.121-2.657
			c-0.121-1.207-0.121-1.932-0.121-2.294v-0.241v-0.241c0-0.362,0.603-0.604,1.691-0.604c0.965-0.121,1.568-0.242,1.932-0.242
			c0.844,0,1.449,0,1.69,0.121c1.088,0,2.535,0.362,2.898,0.966V269.547z"/>
		<path style="stroke:#000000;stroke-miterlimit:10;" d="M387.09,326.658c0,0.605,0,1.449,0.121,2.537v2.414v5.555
			c0,0.846,0,2.535-0.121,5.191c-0.121,2.535-0.242,4.467-0.482,5.555c-0.242,1.086-0.605,2.535-0.967,4.346
			c-0.361,1.691-0.967,3.02-1.57,3.984c-0.604,0.967-1.447,1.691-2.414,2.295c-1.328,0.725-2.414,1.207-3.381,1.57
			c-1.086,0.361-2.174,0.482-3.02,0.482h-0.603h-2.656h-1.207c-1.086-0.121-2.174-0.482-3.26-0.846
			c-0.361-0.121-0.725-0.361-1.328-0.604c-0.604-0.242-1.086-0.482-1.449-0.604c-1.57-0.846-2.898-2.174-4.227-3.984
			c-0.604-1.086-0.965-2.053-1.328-3.02c-0.119-0.361-0.361-0.965-0.604-1.81c-0.361-0.846-0.603-1.328-0.725-1.69
			c0-0.484-0.119-1.209-0.24-2.174c-0.121-0.967-0.242-1.691-0.242-2.295c0-0.24-0.121-0.965-0.242-2.053
			c-0.119-1.207-0.24-2.172-0.361-3.018c0-0.121-0.121-2.053-0.363-5.797c-0.119-1.207-0.119-3.139-0.119-5.674v-1.81v-4.227v-1.57
			c-0.121-0.846-0.121-1.449-0.121-1.811s0-0.966,0.121-1.69v-1.69v-7.485c0-1.087,0-2.656,0.119-4.589v-4.105
			c0-0.845,0-2.052,0.121-3.501c0.121-1.449,0.121-2.415,0.121-3.019c0-2.415,0-4.105,0.121-4.95
			c0.242-4.589,1.086-8.573,2.535-12.074c2.053-4.348,4.951-6.883,8.936-7.486c0.242-0.121,0.603-0.121,1.207-0.121
			c0.725,0,1.328,0,1.81,0.121c0.846,0,1.813,0.362,2.898,0.966c1.086,0.483,2.174,1.207,3.02,2.053
			c1.811,1.69,3.139,3.381,4.225,5.071c1.088,1.569,2.053,4.105,3.02,7.365c0.604,1.811,1.086,3.984,1.449,6.762
			c0,0.12,0,0.482,0.119,1.086c0.121,0.604,0.121,1.208,0.242,1.57c0.242,0.966,0.363,3.019,0.363,6.278
			c0.119,0.846,0.24,2.174,0.24,4.227c0.121,0.603,0.121,1.569,0.121,2.897c0,1.449,0,2.656,0.121,3.502v3.622v4.347v4.83V326.658z
			 M364.873,284.64c0,0.121,0,0.604-0.121,1.328c-0.121,0.604-0.121,1.208-0.242,1.811c0,0.121,0,0.362,0.121,0.725v0.604
			c0,0.362-0.121,1.087-0.24,2.053c0,1.69,0,3.14-0.121,4.226c0,1.933,0,3.381-0.121,4.468v4.83
			c-0.121,2.173-0.121,3.863-0.121,4.95v5.796v1.811v3.744c0.121,13.645,0.482,21.25,0.967,23.063
			c0.482,1.568,0.844,2.775,1.207,3.5c0.603,1.328,1.207,2.174,1.57,2.656c0.604,0.725,1.447,1.328,2.535,1.691
			c0.725,0.24,1.689,0.361,3.018,0.361c0.846,0,1.57-0.24,2.416-0.844c0.121-0.121,0.482-0.363,1.086-0.725
			c0.482-0.363,0.846-0.604,1.088-0.725c0.119-0.242,0.361-0.604,0.723-0.967c0.242-0.482,0.484-1.086,0.605-1.689
			c0.361-1.209,0.483-2.898,0.483-5.193c0-2.293,0.121-4.225,0.24-5.553v-0.967c0-2.293,0-5.674-0.119-10.264
			c-0.121-4.588-0.121-7.847-0.121-9.9v-2.174c-0.121-0.966-0.121-1.69-0.121-2.053c0.121-0.362,0.121-0.845,0.121-1.448v-1.57
			v-4.226v-4.83c0-0.845,0-2.173-0.121-4.105c-0.121-2.052-0.242-3.501-0.361-4.588c-0.121-1.087-0.363-2.415-0.725-3.743
			c-0.363-1.448-0.725-2.656-1.209-3.743l-1.086-1.691c-0.603-0.966-0.967-1.569-1.086-1.69c-0.242-0.482-0.603-0.966-0.967-1.328
			c-0.121-0.361-0.482-0.724-1.207-1.086c-0.604-0.604-1.57-0.966-3.139-1.328c-1.328,0.482-2.174,0.966-2.416,1.569
			c-1.086,1.087-1.69,2.173-2.053,3.502C365.115,282.467,364.994,283.674,364.873,284.64z"/>
		<path style="stroke:#000000;stroke-miterlimit:10;" d="M402.906,352.016c0,0.604,0,1.449-0.121,2.293
			c0,2.535-1.207,3.865-3.502,4.227h-0.723c-0.725,0-1.328-0.121-1.813-0.361c-0.844-0.242-1.449-0.846-1.932-1.691
			c-0.361-1.086-0.604-1.932-0.604-2.535c0.121-1.449,0.361-2.535,0.725-3.381c0.603-1.328,1.086-2.053,1.57-2.295l0.24-0.121h0.363
			c0.121,0,0.361,0,0.725-0.119c0.361-0.121,0.482-0.121,0.603-0.121h0.24l0.121,0.121c0.121,0,0.363,0.119,0.604,0.119
			c0.363,0.242,0.725,0.242,1.088,0.242c0.121,0,0.24,0.121,0.361,0.242l0.363,0.24
			C402.424,348.875,402.906,349.963,402.906,352.016z M402.303,268.461v5.675c-0.121,2.776-0.121,4.829-0.121,6.399
			c0.121,0.966,0.121,2.414,0.121,4.226c0.121,1.328,0.121,3.381,0.242,6.399v6.882v3.985v6.882v3.019v5.675v2.536v1.932
			c0.119,0.846,0.119,1.449,0.119,1.813c0,1.207-0.119,2.656-0.24,4.467v2.293c0,0.121,0,0.846,0.121,2.174v3.26
			c0,2.053-0.121,3.381-0.363,3.744c-1.568,0.361-2.535,0.482-2.898,0.482c-0.604,0-1.69-0.121-3.26-0.242
			c-0.482-0.119-0.725-0.723-0.725-1.932v-1.207c0-0.846,0-1.328-0.119-1.689c0-0.846-0.121-3.381-0.242-7.365
			c0-0.604,0-1.691-0.121-3.02v-3.26c-0.121-0.846-0.121-2.052-0.121-3.623v-3.863c-0.121-2.053-0.121-5.192-0.121-9.418V300.7
			v-0.725c0.121-0.362,0.121-0.604,0.121-0.725c0-0.846-0.121-1.569-0.361-2.294c0.121-0.483,0.121-1.087,0.121-1.933v-1.932
			c0-0.362,0-0.966,0.119-1.81v-1.69v-9.539c0-2.294-0.119-4.226-0.119-6.037s0.119-3.381,0.119-4.709c0-0.121,0-0.121-0.119-0.241
			v-0.121v-0.121l0.483-0.724c1.328-0.242,3.017-0.362,5.07-0.362c1.57,0,2.295,0.12,2.295,0.362V268.461z"/>
	</g>
</g>
<g style="opacity:0.07;">
	<g>
		<path style="stroke:#000000;stroke-miterlimit:10;" d="M254.108,274.065c1.69,0,3.381,0.12,3.863,0.603
			c0,0.604,0,1.207,0.121,1.569c0,1.087,0,1.811-0.121,2.294c0.121,0.604,0.242,1.69,0.242,3.261l0.12,19.318v7.486
			c0,0.845,0,2.053,0.121,3.743v3.501c0,0.604,0,1.69,0.121,3.14v3.38c0,2.777,0,4.83,0.12,6.158c0,0.846,0,1.932,0.121,3.502v3.381
			c0,0.482,0,1.449,0.121,2.898c0,1.328,0,2.414,0.12,3.26c0,0.604,0,1.568,0.121,2.777v2.535c0.12,1.328,0.12,3.26,0.12,5.553
			c0,1.209,0.121,2.658,0.242,4.227c0,0.242,0,0.603,0.12,0.967v2.293c0,0.363,0,0.725,0.121,1.209v1.689
			c0,0.121-0.725,0.482-2.053,0.846h-1.449c-1.932,0-3.984-0.121-3.984-1.088v-0.119c0-0.363-0.241-1.813-0.362-2.174v-3.381
			c-0.12-0.846-0.12-2.053-0.12-3.744v-1.689c-0.121-0.846-0.121-1.449-0.121-1.811v-3.141c-0.121-1.086-0.121-1.811-0.121-2.293
			c-0.12-1.088-0.12-2.656-0.12-4.709v-3.744c-0.121-1.449-0.121-2.656-0.241-3.5c0-0.605-0.242-2.295-0.242-2.898v-0.846
			c0-1.207,0-2.053-0.12-2.535l-2.536-0.242c-0.241,0-0.604,0-1.207,0.121h-2.898c-0.724,0.121-1.207,0.121-1.569,0.242h-3.26
			c-0.242,9.779,0,15.213,0,16.42v6.158c-0.121,0.604-0.121,1.449-0.121,2.535v12.799c0,0.363-1.69,0.604-5.191,0.604
			c-1.328,0-1.933-0.24-1.933-0.725c0-0.119,0-0.361-0.12-0.844v-3.502c0.12-1.086,0.12-1.932,0.12-2.295
			c0-0.121,0-0.361-0.12-0.603V346.51c0.12-2.777,0.12-4.949,0.12-6.762v-3.863c0-2.656-0.362-11.832-0.362-14.609
			c-0.12-0.846-0.12-1.932-0.12-3.381v-0.12l-0.242-10.988l-0.241-8.693c0-0.845,0-2.053-0.12-3.622v-3.019
			c-0.121-1.207-0.121-2.897-0.121-5.071c-0.121-5.313-0.362-8.21-0.483-10.987c0-0.725,2.295-0.966,3.743-0.966
			c0.846-0.121,1.449-0.242,1.932-0.362h0.605c1.328,0,1.328,0,1.328,1.328v0.241c0,1.328,0.12,2.536,0.241,3.622
			c0,2.053,0,2.415,0.121,3.381c0,0.966,0,2.415,0.12,4.227c0,1.811,0,3.139,0.121,3.984v4.105c0,1.086,0,1.69,0.121,1.932v2.294
			c-0.121,0.362-0.121,0.604-0.121,0.845c0,0.121,0,0.483,0.121,0.846v4.588c0.12,0.604,0.12,1.57,0.12,2.898v1.569
			c-0.12,0.725-0.12,1.207-0.12,1.569c0.12,0.966,0.241,1.69,0.241,2.053v0.966v3.381h0.241c0.604,0,1.449,0,1.812,0.121
			l3.984,0.362l5.796-0.241l-0.121-4.589c0-2.053-0.121-2.777-0.241-3.743c0-0.12,0-0.604,0.12-1.69
			c0-1.086,0.121-1.811,0.242-2.414c-0.242-0.362-0.362-1.087-0.362-2.174v-1.328l-0.121-3.502c0-0.966,0-2.414-0.121-4.347
			c0-1.932,0-3.381-0.12-4.226c0-1.69,0-2.053-0.121-2.656c0-1.328,0-2.294-0.121-2.898c0-0.603-0.12-1.81-0.12-2.776V276.6
			c0.12-0.845,0.12-1.449,0.12-1.811c0-0.362,0.725-0.604,2.174-0.725H254.108z"/>
		<path style="stroke:#000000;stroke-miterlimit:10;" d="M294.798,274.91c0.241,0,0.482,0.483,0.603,1.57
			c0.12,0.361,0.12,0.966,0.12,1.811c0,0.846,0,1.087-0.12,1.449c-0.121,1.449-0.242,2.294-0.362,2.535
			c-0.121,0.242-0.966,0.362-2.415,0.362h-1.087c-3.019,0-4.95,0-5.675,0.121l-10.263,0.362v12.799c0,0.966,0.12,2.535,0.241,4.588
			c0.121,0.362,0.121,0.966,0,1.69c-0.121,0.725-0.121,1.207-0.121,1.449v1.086c0.121,0.967,0.121,2.295,0.121,3.864v3.381
			c0.121,1.328,0.121,2.294,0.121,2.777l0.362,7.124c0.361,0.121,4.588,0.482,6.641,0.482h3.501h0.846
			c1.087,0,2.173,0.121,2.294,0.242c0.604,0.121,0.483,1.328,0.604,2.656c0.121,0.482,0.242,1.086,0.242,1.932
			c0,0.482-0.121,0.967-0.242,1.449c0,1.207,0.241,1.811-0.362,1.811l-13.765,0.604L275.72,354.6l9.901,0.242
			c4.829,0,7.849,0.121,9.056,0.242c0.603,0.119,0.966,1.932,0.966,5.313c0,1.811-0.121,2.656-0.483,2.656
			c-0.724,0.121-1.932,0.121-3.501,0.121c-0.362,0.119-1.449,0.119-3.502,0.119h-5.313l-14.609-0.24
			c-0.362,0-0.604-1.813-0.604-5.313v-3.744v-3.018c0-3.26,0.121-4.227,0.242-7.728v-2.898v-6.156c0.12-2.656,0.12-4.83,0.12-6.279
			c0-2.535,0-4.348-0.12-5.676v-1.086c0.12-0.361,0.12-0.725,0.12-0.967c0-0.603,0-1.448-0.12-2.535
			c-0.121-1.087-0.121-1.932-0.121-2.415c0-0.241,0-0.604,0.121-0.966v-0.845c-0.121-1.811-0.121-4.468-0.121-7.727
			c-0.121-10.143-0.241-15.939-0.241-17.508c0-7.365,0.362-11.712,1.087-13.161c0.12-0.241,1.811-0.483,5.191-0.604h0.966
			c1.812,0,5.192,0.12,6.883,0.12c3.743,0,7.728,0,8.693-0.12c0.603,0.12,1.328,0.12,2.415,0.241c0.966,0,1.569,0.121,1.932,0.241
			H294.798z"/>
		<path style="stroke:#000000;stroke-miterlimit:10;" d="M330.777,364.017h-0.119c-0.121,0-0.363,0.121-0.725,0.242
			c-0.484,0.121-0.846,0.242-1.209,0.361c-0.483-0.119-0.844-0.24-1.207-0.24c-0.121,0-0.361,0-0.725,0.121h-0.725h-0.24
			c-0.242,0.119-0.482,0.119-0.603,0.119c-0.121,0-0.242,0-0.484-0.119h-0.361c-0.846,0-1.449,0-1.932-0.121
			c-1.088,0.121-3.381,0.24-6.762,0.24c-0.845,0-1.569,0-2.173-0.119c-1.087,0.119-2.777,0.119-4.83,0.119
			c-0.362,0-0.966,0-1.569,0.121h-1.208c-1.086,0-1.69-0.121-1.81-0.361l-0.242-0.967c0-0.121,0-0.361-0.12-0.725v-1.086v-0.242
			c0-0.121,0-0.361-0.121-0.725v-0.725v-0.119c0-0.242,0-0.484,0.121-0.605c-0.121-0.361-0.121-0.965-0.241-1.69
			c0-0.967,0-1.57-0.121-1.932c-0.121-0.363-0.121-0.846-0.121-1.57v-0.846c0-0.604,0-1.086,0.121-1.689l-0.121-4.588
			c0-1.57-0.12-8.572-0.362-15.334c-0.12-6.643-0.241-11.955-0.241-15.818l-0.121-2.777c0-1.207,0-2.053-0.12-2.535
			c0.12-0.846,0.241-1.69,0.241-2.657v-0.966l-0.121-2.173v-0.725c0-0.603,0-1.207,0.121-1.69c0-1.328-0.121-2.174-0.241-2.535
			c0.12-1.933,0.241-2.777,0.241-3.623c0-1.086-0.121-1.932-0.121-4.709c0.121-1.811,0.242-5.313,0.242-6.157v-3.984v-1.329
			c0-0.604,0-1.569-0.121-2.897c0-1.207-0.121-1.812,0.241-2.173c0.242-0.121,0.725-0.242,1.449-0.242h3.864
			c1.086,0,1.569,0,1.81,0.362c0.362,0.362,0.241,0.966,0.121,2.174c0,1.087,0,3.501-0.121,5.675v2.777c0,3.742,0,8.21,0.121,12.557
			c-0.121,1.812-0.121,3.019-0.121,3.743v0.483c0,0.724,0.121,2.053,0.241,3.984l0.242,9.056l0.362,20.165l0.12,6.037
			c0.121,1.811,0.242,6.277,0.242,7.727v1.81v2.053v1.328v1.088h5.313c1.448,0,3.985-0.121,7.485-0.242
			c3.502-0.121,5.314-0.24,5.555-0.24h0.363c0.24,0,0.361,0.361,0.482,1.086c0.121,0.846,0.121,1.689,0.242,2.777
			c0.119,1.086-0.121,1.932,0,2.293L330.777,364.017z"/>
		<path style="stroke:#000000;stroke-miterlimit:10;" d="M345.387,274.547v2.174v0.604v0.725v4.105
			c-0.119,2.053-0.119,3.743-0.119,5.071v2.414v2.295v12.678v10.625c-0.121,11.954-0.242,18.958-0.242,20.889
			c0.121,0.604,0.121,1.568,0.121,2.656v3.621v4.59v4.467v3.863l2.414-0.24c1.691-0.121,3.02-0.242,3.863-0.242h0.967h1.328h1.207
			c0.483-0.121,0.846-0.121,1.088-0.121h0.965h0.725c0.604,0,1.086,0,1.207,0.121c0.242,0,0.363,0.604,0.363,1.689
			c0,0.242,0,0.725-0.121,1.328v1.328v0.605c0,1.811-0.121,2.775-0.482,2.775c-0.242,0-0.725,0.121-1.328,0.363h-2.053
			c-0.967,0.121-1.813,0.121-2.537,0.121h-2.053c-0.965-0.121-1.811-0.121-2.656-0.121h-0.725c-0.482,0.121-1.086,0.121-1.689,0.121
			h-0.725h-0.725h-1.328c-0.725,0-1.57,0-2.414,0.121h-1.57h-0.846c-0.603-0.121-0.844-0.484-0.844-1.088v-1.207v-2.535
			c-0.121-0.242-0.121-0.603-0.121-1.088c0-0.361,0.121-1.086,0.24-2.172c-0.119-1.088-0.119-2.537-0.119-4.469
			c-0.121-1.086-0.121-2.897-0.121-5.191v-5.555c0-2.293,0.121-4.105,0.24-5.313c-0.119-0.725-0.119-1.689-0.119-3.018
			c-0.121-1.328-0.121-2.174-0.121-2.537c0.121-1.086,0.121-2.896,0.121-5.434v-11.349c0-0.725,0-1.811,0.119-3.26v-3.381
			c0-1.449,0-1.691-0.119-2.536c0.119-1.086,0.119-2.656,0.119-4.708c0-1.087,0-2.536,0.121-4.348v-4.104v-5.192v-2.053v-0.725
			c-0.121-0.12-0.121-0.362-0.121-0.724c0.121-0.483,0.121-1.087,0.121-1.69c0-0.604,0-1.57-0.121-2.657
			c-0.119-1.207-0.119-1.932-0.119-2.294v-0.241v-0.241c0-0.362,0.603-0.604,1.689-0.604c0.967-0.121,1.57-0.242,1.932-0.242
			c0.846,0,1.449,0,1.691,0.121c1.086,0,2.535,0.362,2.896,0.966V274.547z"/>
		<path style="stroke:#000000;stroke-miterlimit:10;" d="M395.978,331.658c0,0.605,0,1.449,0.121,2.537v2.414v5.555
			c0,0.846,0,2.535-0.121,5.191c-0.119,2.535-0.24,4.467-0.482,5.555c-0.242,1.086-0.604,2.535-0.965,4.346
			c-0.363,1.691-0.967,3.02-1.57,3.984c-0.604,0.967-1.449,1.691-2.416,2.295c-1.328,0.725-2.414,1.207-3.381,1.57
			c-1.086,0.361-2.172,0.482-3.018,0.482h-0.603h-2.656h-1.207c-1.088-0.121-2.174-0.482-3.262-0.846
			c-0.361-0.121-0.723-0.361-1.328-0.604c-0.604-0.242-1.086-0.482-1.447-0.604c-1.57-0.846-2.898-2.174-4.227-3.984
			c-0.603-1.086-0.967-2.053-1.328-3.02c-0.121-0.361-0.363-0.965-0.604-1.81c-0.363-0.846-0.604-1.328-0.725-1.69
			c0-0.484-0.121-1.209-0.242-2.174c-0.121-0.967-0.24-1.691-0.24-2.295c0-0.24-0.121-0.965-0.242-2.053
			c-0.121-1.207-0.242-2.172-0.363-3.018c0-0.121-0.119-2.053-0.361-5.797c-0.121-1.207-0.121-3.139-0.121-5.674v-1.81v-4.227v-1.57
			c-0.121-0.846-0.121-1.449-0.121-1.811c0-0.363,0-0.967,0.121-1.691v-1.69v-7.485c0-1.087,0-2.656,0.121-4.589v-4.105
			c0-0.845,0-2.052,0.121-3.501c0.121-1.449,0.121-2.415,0.121-3.019c0-2.415,0-4.105,0.119-4.95
			c0.242-4.589,1.088-8.573,2.537-12.074c2.053-4.348,4.949-6.883,8.934-7.486c0.242-0.121,0.604-0.121,1.209-0.121
			c0.725,0,1.328,0,1.811,0.121c0.846,0,1.81,0.362,2.898,0.966c1.086,0.483,2.172,1.207,3.018,2.053
			c1.811,1.69,3.139,3.381,4.227,5.071c1.086,1.569,2.053,4.105,3.018,7.365c0.603,1.811,1.088,3.984,1.449,6.762
			c0,0.12,0,0.482,0.121,1.086c0.121,0.604,0.121,1.208,0.242,1.57c0.24,0.966,0.361,3.019,0.361,6.278
			c0.121,0.846,0.242,2.174,0.242,4.227c0.121,0.603,0.121,1.569,0.121,2.897c0,1.449,0,2.656,0.119,3.502v3.622v4.346v4.83V331.658
			z M373.762,289.64c0,0.121,0,0.604-0.119,1.328c-0.121,0.604-0.121,1.208-0.242,1.811c0,0.121,0,0.362,0.121,0.725v0.604
			c0,0.362-0.121,1.087-0.242,2.053c0,1.69,0,3.14-0.121,4.226c0,1.933,0,3.381-0.119,4.468v4.83
			c-0.121,2.173-0.121,3.863-0.121,4.95v5.796v1.811v3.744c0.121,13.645,0.482,21.25,0.965,23.063
			c0.484,1.568,0.846,2.775,1.207,3.5c0.605,1.328,1.209,2.174,1.57,2.656c0.604,0.725,1.449,1.328,2.535,1.691
			c0.725,0.24,1.691,0.361,3.02,0.361c0.846,0,1.57-0.24,2.414-0.844c0.121-0.121,0.484-0.363,1.088-0.725
			c0.482-0.363,0.844-0.604,1.086-0.725c0.121-0.242,0.361-0.604,0.725-0.967c0.242-0.482,0.482-1.086,0.603-1.689
			c0.363-1.209,0.482-2.898,0.482-5.193c0-2.293,0.121-4.225,0.242-5.553v-0.967c0-2.293,0-5.674-0.121-10.264
			c-0.121-4.588-0.121-7.848-0.121-9.9v-2.173c-0.119-0.966-0.119-1.69-0.119-2.053c0.119-0.362,0.119-0.845,0.119-1.448v-1.57
			v-4.226v-4.83c0-0.845,0-2.173-0.119-4.105c-0.121-2.052-0.242-3.501-0.363-4.588c-0.121-1.087-0.361-2.415-0.725-3.743
			c-0.361-1.448-0.725-2.656-1.207-3.743l-1.086-1.691c-0.605-0.966-0.967-1.569-1.088-1.69c-0.24-0.482-0.604-0.966-0.965-1.328
			c-0.121-0.361-0.484-0.724-1.209-1.086c-0.604-0.604-1.568-0.966-3.139-1.328c-1.328,0.482-2.174,0.966-2.414,1.569
			c-1.088,1.087-1.691,2.173-2.053,3.502C374.004,287.467,373.883,288.674,373.762,289.64z"/>
		<path style="stroke:#000000;stroke-miterlimit:10;" d="M411.797,357.016c0,0.604,0,1.449-0.121,2.293
			c0,2.535-1.207,3.865-3.502,4.227h-0.725c-0.725,0-1.328-0.121-1.811-0.361c-0.846-0.242-1.449-0.846-1.932-1.691
			c-0.363-1.086-0.604-1.932-0.604-2.535c0.119-1.449,0.361-2.535,0.723-3.381c0.605-1.328,1.088-2.053,1.57-2.295l0.242-0.121H406
			c0.121,0,0.363,0,0.725-0.119c0.363-0.121,0.482-0.121,0.603-0.121h0.242l0.121,0.121c0.121,0,0.361,0.119,0.603,0.119
			c0.361,0.242,0.725,0.242,1.086,0.242c0.121,0,0.242,0.121,0.363,0.242l0.361,0.24
			C411.313,353.875,411.797,354.963,411.797,357.016z M411.193,273.461v5.675c-0.121,2.776-0.121,4.829-0.121,6.399
			c0.121,0.966,0.121,2.414,0.121,4.226c0.119,1.328,0.119,3.381,0.24,6.399v6.882v3.985v6.882v3.019v5.675v2.535v1.932
			c0.121,0.846,0.121,1.449,0.121,1.813c0,1.207-0.121,2.656-0.242,4.467v2.293c0,0.121,0,0.846,0.121,2.174v3.26
			c0,2.053-0.121,3.381-0.361,3.744c-1.57,0.361-2.537,0.482-2.898,0.482c-0.603,0-1.69-0.121-3.26-0.242
			c-0.482-0.119-0.725-0.723-0.725-1.932v-1.207c0-0.846,0-1.328-0.121-1.689c0-0.846-0.121-3.381-0.242-7.365
			c0-0.604,0-1.691-0.119-3.02v-3.26c-0.121-0.846-0.121-2.053-0.121-3.623v-3.863c-0.121-2.053-0.121-5.192-0.121-9.418V305.7
			v-0.725c0.121-0.362,0.121-0.604,0.121-0.725c0-0.846-0.121-1.569-0.363-2.294c0.121-0.483,0.121-1.087,0.121-1.933v-1.932
			c0-0.362,0-0.966,0.121-1.81v-1.69v-9.539c0-2.294-0.121-4.226-0.121-6.037s0.121-3.381,0.121-4.709c0-0.121,0-0.121-0.121-0.241
			v-0.121v-0.121l0.482-0.724c1.328-0.242,3.02-0.362,5.072-0.362c1.57,0,2.295,0.12,2.295,0.362V273.461z"/>
	</g>
</g>
</svg>
